<?xml version="1.0" encoding="UTF-8"?>
<svg width="124px" height="124px" viewBox="0 0 124 124" version="1.1" xmlns="http://www.w3.org/2000/svg"
     xmlns:xlink="http://www.w3.org/1999/xlink">
    <title>Shape</title>
    <g id="Page-1" stroke="none" stroke-width="1" fill="none" fill-rule="evenodd" fill-opacity="0.1">
        <path d="M54.2526,23.2719 L54.2526,35.0895 L61.446,42.2818 C59.799,33.8545 62.2937,25.2577 68.3486,19.2036 C73.2653,14.2877 79.7805,11.6481 86.5136,11.6481 L86.8042,11.6481 L72.902,25.4999 L76.5592,47.4399 L98.5025,51.0966 L112.38,37.2206 C112.453,44.0738 109.813,50.6607 104.824,55.6493 C102.571,57.9014 99.9314,59.6207 97.1219,60.88 C97.5579,61.2675 98.0665,61.5823 98.4782,61.9939 L105.914,69.4284 C108.457,67.9027 110.879,66.0623 113.034,63.8828 C122.262,54.6564 126.041,41.0468 122.892,28.3816 C122.165,25.4272 119.889,23.1024 116.982,22.2791 C114.027,21.4557 110.879,22.3033 108.747,24.4585 L94.5304,38.6494 L86.6831,37.3417 L85.3753,29.4956 L99.5681,15.3048 C101.724,13.1495 102.547,10.0014 101.724,7.07118 C100.924,4.141 98.5751,1.86466 95.6203,1.13817 C82.7353,-2.05839 69.487,1.6225 60.1139,10.97 C57.6434,13.4401 55.6332,16.225 53.9862,19.1794 L54.2526,19.3731 L54.2526,23.2719 Z M25.6731,109.942 C22.573,113.042 17.1235,113.042 14.0233,109.942 C12.4733,108.393 11.6013,106.31 11.6013,104.13 C11.6013,101.927 12.449,99.8684 14.0233,98.3185 L46.5749,65.7717 L38.3644,57.5623 L5.81278,90.085 C2.05869,93.8385 0,98.8271 0,104.13 C0,109.434 2.05869,114.422 5.81278,118.176 C9.56687,121.929 14.5562,123.988 19.8603,123.988 C25.1645,123.988 30.1538,121.929 33.9079,118.176 L58.3458,93.7416 C55.9965,89.9154 54.6644,85.5565 54.5433,81.1249 L25.6731,109.942 Z M121.366,95.8242 L93.0045,67.4669 C87.4097,61.8729 79.0539,60.7831 72.3207,64.1008 L46.5023,38.2861 L46.5023,23.2477 L15.5008,0 L0,15.4985 L23.2511,46.4955 L38.2917,46.4955 L64.1102,72.3101 C60.8162,79.0423 61.8819,87.3969 67.4767,92.9909 L95.8383,121.348 C99.3744,124.884 105.09,124.884 108.602,121.348 L121.366,108.586 C124.878,105.051 124.878,99.3356 121.366,95.8242 Z"
              id="Shape" fill="#000000" fill-rule="nonzero"></path>
    </g>
</svg>